<mxfile host="app.diagrams.net" modified="2024-06-11T17:19:34.610Z" agent="Mozilla/5.0 (X11; Ubuntu; Linux x86_64; rv:126.0) Gecko/20100101 Firefox/126.0" version="24.5.3" etag="JL2Xaboz5IyrRPdwlDLc" type="github">
  <diagram name="Page-1" id="d74JrZhV2mvLJ1xgkHzQ">
    <mxGraphModel>
      <root>
        <mxCell id="0" />
        <mxCell id="1" parent="0" />
      </root>
    </mxGraphModel>
  </diagram>
</mxfile>
